<svg xmlns="http://www.w3.org/2000/svg" viewBox="0 0 370.17 373.68"><defs><style>.cls-1{fill:#6495ed;}.cls-2{fill:#372978;}.cls-3{fill:none;stroke:#b0c4de;stroke-miterlimit:10;stroke-width:3.03px;}</style></defs><g id="Layer_2" data-name="Layer 2"><g id="Elements"><path class="cls-1" d="M172.16,45.19c-27.76-2.54-96.93-2.12-142.88,22.5C16.57,74.49,6.53,85.46,2.17,98.54c-9.51,28.53,14.14,44.35,34.07,58.34C52.06,168,68.45,183.71,64.91,202.6c-2.58,13.79-15,24-24.67,34.88-12.5,14-21.68,32.46-17.42,49.69,5.34,21.64,30.22,33.75,53.91,34.76s47.19-6.27,70.75-10.39c33.69-5.9,68.19-5.41,101.57-13.05s67.39-25.86,80.78-56c10.55-23.7,6.27-51-6.16-72.85s-32.2-38.94-53.05-53.88c-16.67-12-34.9-23.47-44.28-41.23-6.23-11.8,3.19-5.39-7.71-13.55C206.65,52,187.66,46.61,172.16,45.19Z"/><path class="cls-2" d="M34.11,195.54a3.48,3.48,0,0,0,1-5,3.55,3.55,0,1,0-6,3.79A3.5,3.5,0,0,0,34.11,195.54Z"/><path class="cls-2" d="M39.31,208.31a3.75,3.75,0,0,0,1.1-4.93,3.29,3.29,0,0,0-4.84-1.08,3.42,3.42,0,0,0-1.17,4.92A4,4,0,0,0,39.31,208.31Z"/><path class="cls-2" d="M250.91,289a3.33,3.33,0,0,0-1.09,4.77,3.51,3.51,0,1,0,5.89-3.83A3.32,3.32,0,0,0,250.91,289Z"/><path class="cls-2" d="M181.18,296.47a3.46,3.46,0,1,0-4.85-1A3.55,3.55,0,0,0,181.18,296.47Z"/><path class="cls-2" d="M211.54,298.32a3.49,3.49,0,1,0-4.84-1A3.58,3.58,0,0,0,211.54,298.32Z"/><path class="cls-2" d="M44.61,220.5a3.55,3.55,0,0,0,.9-4.92,3.08,3.08,0,0,0-4.61-.85,3.32,3.32,0,0,0-1.34,4.36A3.71,3.71,0,0,0,44.61,220.5Z"/><path class="cls-2" d="M242.27,300a3,3,0,0,0,.92-4.49c-1.21-1.89-2.91-2.32-4.64-1.17a3,3,0,0,0-.93,4.44C238.88,300.69,240.49,301.11,242.27,300Z"/><path class="cls-2" d="M285.54,296.45a3.13,3.13,0,0,0,.8-4.5,3.25,3.25,0,1,0-5.31,3.69A3.14,3.14,0,0,0,285.54,296.45Z"/><path class="cls-2" d="M297.75,291.19a3.07,3.07,0,0,0,1-4.41c-1.16-1.85-3-2.37-4.68-1.3a3.21,3.21,0,0,0-.94,4.52C294.3,291.83,296.05,292.28,297.75,291.19Z"/><path class="cls-2" d="M68.71,251.6c1.15,1.83,2.91,2.3,4.6,1.21a3.06,3.06,0,0,0,1-4.4c-1.15-1.87-3-2.38-4.67-1.33A3.25,3.25,0,0,0,68.71,251.6Z"/><path class="cls-2" d="M318.53,279.3A3.23,3.23,0,1,0,324.1,276c-1.15-1.83-3.05-2.34-4.68-1.25A3.19,3.19,0,0,0,318.53,279.3Z"/><path class="cls-2" d="M229.69,305.45a3.12,3.12,0,0,0,.92-4.48,3.25,3.25,0,1,0-5.39,3.57A3.12,3.12,0,0,0,229.69,305.45Z"/><path class="cls-2" d="M199,303.46a3.07,3.07,0,0,0,1.09-4.39c-1.16-1.9-2.91-2.41-4.67-1.38a3.26,3.26,0,0,0-1,4.51C195.58,304,197.34,304.52,199,303.46Z"/><path class="cls-2" d="M305.89,284.73c1.14,1.84,2.9,2.32,4.59,1.26a3.06,3.06,0,0,0,1.08-4.39c-1.16-1.9-2.9-2.41-4.66-1.38A3.25,3.25,0,0,0,305.89,284.73Z"/><path class="cls-2" d="M132.43,287.11a3.07,3.07,0,0,0,1.14-4.49c-1.15-1.86-3-2.37-4.68-1.3a3.21,3.21,0,0,0-.93,4.52C129.07,287.61,130.8,288.1,132.43,287.11Z"/><path class="cls-2" d="M150.4,294.33a3.27,3.27,0,1,0-4.58-1.09A3.2,3.2,0,0,0,150.4,294.33Z"/><path class="cls-2" d="M16.63,199.37a3.28,3.28,0,0,0,4.51,1.14,3.34,3.34,0,0,0,1-4.59c-1-1.5-3.37-2.15-4.61-1.06S15.35,198,16.63,199.37Z"/><path class="cls-2" d="M96.63,272.68a3.37,3.37,0,0,0,.91-4.6,3.23,3.23,0,1,0-5.43,3.49A3.29,3.29,0,0,0,96.63,272.68Z"/><path class="cls-2" d="M110,279a3.27,3.27,0,1,0,.93-4.5A3.21,3.21,0,0,0,110,279Z"/><path class="cls-2" d="M45.53,232A3.27,3.27,0,0,0,51,228.49,3.27,3.27,0,1,0,45.53,232Z"/><path class="cls-2" d="M168.45,301.78a3.36,3.36,0,0,0,.8-4.55,3,3,0,0,0-4.43-.78,3.07,3.07,0,0,0-.89,4.41A3.37,3.37,0,0,0,168.45,301.78Z"/><path class="cls-2" d="M272.84,302a3.37,3.37,0,0,0,.92-4.52,3.22,3.22,0,0,0-5.42,3.48A3.34,3.34,0,0,0,272.84,302Z"/><path class="cls-2" d="M22.28,212.13a3.44,3.44,0,0,0,4.45.88,3.44,3.44,0,0,0,.86-4.45,3,3,0,0,0-4.43-.85A2.94,2.94,0,0,0,22.28,212.13Z"/><path class="cls-2" d="M50.62,244.32a3.16,3.16,0,1,0,5.45-3.14,2.83,2.83,0,0,0-4.33-.83C50.2,241.36,49.75,243,50.62,244.32Z"/><path class="cls-2" d="M73.94,264.19a3.34,3.34,0,0,0,4.53,1.35,3.3,3.3,0,0,0,.92-4.51,2.86,2.86,0,0,0-4.21-.91C73.54,261.24,73,262.77,73.94,264.19Z"/><path class="cls-2" d="M260.08,307.15a3.3,3.3,0,0,0,.84-4.42,2.82,2.82,0,0,0-4.32-.86c-1.6,1-2,2.68-1.09,4.1A3.34,3.34,0,0,0,260.08,307.15Z"/><path class="cls-2" d="M216.89,310.61a3.3,3.3,0,0,0,.86-4.41c-1-1.51-2.67-2.12-4.32-.88-1.61,1-2.05,2.68-1.11,4.09A3.33,3.33,0,0,0,216.89,310.61Z"/><path class="cls-2" d="M186.35,308.9a3.14,3.14,0,1,0-4.27-1A3.22,3.22,0,0,0,186.35,308.9Z"/><path class="cls-2" d="M247.34,312.45a2.7,2.7,0,0,0,.77-4.12c-1.07-1.64-2.64-2-4.16-1a2.82,2.82,0,0,0-.7,4.22A2.69,2.69,0,0,0,247.34,312.45Z"/><path class="cls-2" d="M115.63,291.15c1.14,1.79,2.5,2.16,4.12,1.13a2.62,2.62,0,0,0,.93-4c-1.14-1.79-2.61-2.19-4.22-1.14A2.72,2.72,0,0,0,115.63,291.15Z"/><path class="cls-2" d="M27.7,224.65c1.07,1.64,2.45,1.95,4,.92s1.9-2.46.76-4.19a2.72,2.72,0,0,0-4.14-.93C26.82,221.5,26.59,223,27.7,224.65Z"/><path class="cls-2" d="M137.62,299.64a3,3,0,1,0-4.16-1A3,3,0,0,0,137.62,299.64Z"/><path class="cls-2" d="M60.6,258a2.84,2.84,0,0,0,.73-4.17,3.11,3.11,0,0,0-4.12-1,3.15,3.15,0,0,0-.64,4.3A2.81,2.81,0,0,0,60.6,258Z"/><path class="cls-2" d="M151.71,305.88a3,3,0,1,0,.82-4.2A2.91,2.91,0,0,0,151.71,305.88Z"/><path class="cls-2" d="M101.77,285.18a3,3,0,1,0-4.08-.79A2.88,2.88,0,0,0,101.77,285.18Z"/><path class="cls-2" d="M38.11,234.14a2.92,2.92,0,1,0-.92,4.06A3,3,0,0,0,38.11,234.14Z"/><path class="cls-2" d="M311.43,296.78a2.91,2.91,0,1,0,1-4A3,3,0,0,0,311.43,296.78Z"/><path class="cls-2" d="M303.06,303.52a3,3,0,0,0,.87-4.07,2.92,2.92,0,1,0-.87,4.07Z"/><path class="cls-2" d="M204.16,315.92a2.93,2.93,0,1,0-4.08-.86A2.88,2.88,0,0,0,204.16,315.92Z"/><path class="cls-2" d="M173.49,313.91a3,3,0,0,0,.89-4.08,2.9,2.9,0,0,0-4.94,3.05A3,3,0,0,0,173.49,313.91Z"/><path class="cls-2" d="M234.52,317.7a3,3,0,0,0,.84-4.09,2.91,2.91,0,0,0-4.9,3.12A3,3,0,0,0,234.52,317.7Z"/><path class="cls-2" d="M290.55,309a3,3,0,0,0,.71-4.12c-1-1.49-2.42-1.73-4-.68a2.58,2.58,0,0,0-.8,4A3,3,0,0,0,290.55,309Z"/><path class="cls-2" d="M277.68,314.18a3.16,3.16,0,0,0,.83-4,2.59,2.59,0,0,0-3.62-1c-1.88,1.14-2.25,2.27-1.29,3.84C274.17,314.73,276.68,314.79,277.68,314.18Z"/><path class="cls-2" d="M66.6,266.19a2.56,2.56,0,0,0-3.81-.69c-1.66,1.07-1.85,2.19-1,3.84.75,1.41,3,1.57,4,1A3.15,3.15,0,0,0,66.6,266.19Z"/><path class="cls-2" d="M43.55,246.8a2.82,2.82,0,1,0-.94,3.94A2.91,2.91,0,0,0,43.55,246.8Z"/><path class="cls-2" d="M79.85,277a2.91,2.91,0,1,0,1-4.06A2.91,2.91,0,0,0,79.85,277Z"/><path class="cls-2" d="M108,293.84a2.75,2.75,0,1,0-.86,3.8A2.76,2.76,0,0,0,108,293.84Z"/><path class="cls-2" d="M14.59,214.17a2.71,2.71,0,0,0-3.7-.71,2.7,2.7,0,0,0-1,3.71,3,3,0,0,0,4,1.05A3,3,0,0,0,14.59,214.17Z"/><path class="cls-2" d="M187.5,320.34a2.94,2.94,0,0,0,4,1,3,3,0,0,0,.77-3.94,2.75,2.75,0,0,0-3.81-.75A2.66,2.66,0,0,0,187.5,320.34Z"/><path class="cls-2" d="M222.13,322.93A3,3,0,0,0,223,319a2.8,2.8,0,0,0-4.79,2.9A3,3,0,0,0,222.13,322.93Z"/><path class="cls-2" d="M121,303.9a2.81,2.81,0,1,0,4.72-3,2.74,2.74,0,0,0-3.71-.68A2.69,2.69,0,0,0,121,303.9Z"/><path class="cls-2" d="M265.37,319.38a2.75,2.75,0,1,0-3.84-.75A2.76,2.76,0,0,0,265.37,319.38Z"/><path class="cls-2" d="M143,312a2.75,2.75,0,1,0-3.82-.88A2.77,2.77,0,0,0,143,312Z"/><path class="cls-2" d="M89.8,286.35c-1-1.49-2.36-1.89-3.7-1.05a2.5,2.5,0,0,0-.69,3.78,2.59,2.59,0,1,0,4.39-2.73Z"/><path class="cls-2" d="M157.12,318.23a2.59,2.59,0,1,0,4.43-2.69c-1-1.5-2.35-1.91-3.7-1.08A2.51,2.51,0,0,0,157.12,318.23Z"/><path class="cls-2" d="M20.06,227.11c-1-1.61-2.41-2-3.82-1.09a2.54,2.54,0,0,0-.67,3.68,2.43,2.43,0,0,0,3.64,1A2.41,2.41,0,0,0,20.06,227.11Z"/><path class="cls-2" d="M48.37,259.37c-.91-1.54-2.13-1.77-3.71-1a2.44,2.44,0,0,0-.73,3.62,2.59,2.59,0,1,0,4.44-2.65Z"/><path class="cls-2" d="M252.65,324.77a2.52,2.52,0,0,0,.74-3.59,2.6,2.6,0,0,0-3.73-1,2.56,2.56,0,0,0-.73,3.65A2.52,2.52,0,0,0,252.65,324.77Z"/><path class="cls-2" d="M209.42,328.26a2.57,2.57,0,0,0,.77-3.64,2.74,2.74,0,0,0-3.68-1,2.78,2.78,0,0,0-.79,3.61A2.59,2.59,0,0,0,209.42,328.26Z"/><path class="cls-2" d="M71.68,279.22a2.74,2.74,0,0,0-3.68-1,2.82,2.82,0,0,0-.78,3.61,2.59,2.59,0,1,0,4.46-2.61Z"/><path class="cls-2" d="M236.3,329.23a2.57,2.57,0,0,0,4.33-2.78,2.39,2.39,0,0,0-3.56-.77A2.37,2.37,0,0,0,236.3,329.23Z"/><path class="cls-2" d="M25,239.49a2.38,2.38,0,0,0-3.58-.66,2.34,2.34,0,0,0-.74,3.44A2.57,2.57,0,1,0,25,239.49Z"/><path class="cls-2" d="M130.87,313.52a2.5,2.5,0,1,0-.68,3.45A2.6,2.6,0,0,0,130.87,313.52Z"/><path class="cls-2" d="M179.64,322.65a2.58,2.58,0,1,0-.77,3.54A2.6,2.6,0,0,0,179.64,322.65Z"/><path class="cls-2" d="M308.45,315.74a2.83,2.83,0,0,0,.62-3.58,2.38,2.38,0,0,0-3.4-.67c-1.34.86-1.71,2.12-.95,3.28A2.76,2.76,0,0,0,308.45,315.74Z"/><path class="cls-2" d="M295.63,321a2.81,2.81,0,0,0,.7-3.56,2.4,2.4,0,0,0-3.51-.66,2.2,2.2,0,0,0-.89,3.17A2.75,2.75,0,0,0,295.63,321Z"/><path class="cls-2" d="M113,306.14a2.37,2.37,0,0,0-3.39-.68c-1.35.87-1.72,2.12-1,3.28a2.76,2.76,0,0,0,3.72,1A2.83,2.83,0,0,0,113,306.14Z"/><path class="cls-2" d="M149,320.79c-.82-1.05-1.76-1.71-3.38-.6a2.24,2.24,0,0,0-1,3.05,2.73,2.73,0,0,0,3.7,1.09A2.58,2.58,0,0,0,149,320.79Z"/><path class="cls-2" d="M94.84,299c-1.1-1.4-2.12-1.44-3.39-.57a2.24,2.24,0,0,0-.92,3.06,2.72,2.72,0,0,0,3.71,1.06A2.61,2.61,0,0,0,94.84,299Z"/><path class="cls-2" d="M53.7,271.91c-1.1-1.4-2.12-1.44-3.39-.57a2.24,2.24,0,0,0-.93,3.05,2.72,2.72,0,0,0,3.71,1.07A2.6,2.6,0,0,0,53.7,271.91Z"/><path class="cls-2" d="M282.93,326.46a2.44,2.44,0,1,0-3.38-.83A2.48,2.48,0,0,0,282.93,326.46Z"/><path class="cls-2" d="M227.06,335.27c1.37-.88,1.57-1.84.67-3.23s-2-1.74-3.29-.85-1.45,1.89-.48,3.36C224.82,335.86,225.78,336.08,227.06,335.27Z"/><path class="cls-2" d="M193.26,332.35c.92,1.46,1.87,1.72,3.18.89s1.6-1.84.71-3.21-2-1.75-3.27-.9S192.4,331,193.26,332.35Z"/><path class="cls-2" d="M30.3,252.31c-1-1.5-1.95-1.79-3.27-1s-1.54,1.86-.58,3.34,1.86,1.62,3.21.73A2,2,0,0,0,30.3,252.31Z"/><path class="cls-2" d="M76.92,292a2.29,2.29,0,0,0-3.32-.88,2.38,2.38,0,0,0-.6,3.15c.84,1.36,1.94,1.69,3.18,1A2.1,2.1,0,0,0,76.92,292Z"/><path class="cls-2" d="M270.3,331.77a2.11,2.11,0,0,0,.56-3.26,2.29,2.29,0,0,0-3.23-.79,2.35,2.35,0,0,0-.55,3.27A2.1,2.1,0,0,0,270.3,331.77Z"/><path class="cls-2" d="M166.65,328.13a2.33,2.33,0,0,0-3.23-.74,2.37,2.37,0,0,0-.51,3.28,2.09,2.09,0,0,0,3.22.73C167.34,330.59,167.52,329.44,166.65,328.13Z"/><path class="cls-2" d="M254.48,335.86a2.44,2.44,0,0,0,3.15,1.07,2.4,2.4,0,0,0,.83-3.22,2.52,2.52,0,0,0-3.29-.95A2.56,2.56,0,0,0,254.48,335.86Z"/><path class="cls-2" d="M35.49,265a2.53,2.53,0,0,0-3.18-.92,2.58,2.58,0,0,0-.72,3.21,2.42,2.42,0,0,0,3.19.95A2.38,2.38,0,0,0,35.49,265Z"/><path class="cls-2" d="M215.2,337.05a2.52,2.52,0,0,0-3.2-.84,2.56,2.56,0,0,0-.64,3.24,2.27,2.27,0,1,0,3.84-2.4Z"/><path class="cls-2" d="M184.41,335.37c-.74-1.09-1.74-1.23-3-.43s-1.51,1.77-.68,3a2.24,2.24,0,1,0,3.64-2.58Z"/><path class="cls-2" d="M117.92,319c-.74-1.09-1.74-1.24-3-.44s-1.53,1.77-.7,3a2.24,2.24,0,1,0,3.66-2.57Z"/><path class="cls-2" d="M100.23,312a2.21,2.21,0,1,0-.63,3A2.29,2.29,0,0,0,100.23,312Z"/><path class="cls-2" d="M136,326.12a1.92,1.92,0,0,0-2.9-.46,2,2,0,0,0-.67,3,2.19,2.19,0,1,0,3.57-2.52Z"/><path class="cls-2" d="M58.84,285a2.24,2.24,0,1,0-.68,3.1A2.3,2.3,0,0,0,58.84,285Z"/><path class="cls-2" d="M245.21,342.23a2.3,2.3,0,0,0,.47-3.16,1.92,1.92,0,0,0-2.9-.47,2,2,0,0,0-.69,3A2.31,2.31,0,0,0,245.21,342.23Z"/><path class="cls-2" d="M82,304.79c-.71-.94-1.61-1.5-2.83-.53a1.81,1.81,0,0,0-.67,2.86,2.13,2.13,0,0,0,3,.64A2,2,0,0,0,82,304.79Z"/><path class="cls-2" d="M40.83,277.67c-.71-.94-1.6-1.51-2.86-.54a1.83,1.83,0,0,0-.68,2.84,2.13,2.13,0,0,0,3,.67A2.05,2.05,0,0,0,40.83,277.67Z"/><path class="cls-2" d="M153.8,333.55c-.69-.95-1.58-1.53-3-.51a1.78,1.78,0,0,0-.59,2.77,2.13,2.13,0,0,0,3,.7A2,2,0,0,0,153.8,333.55Z"/><path class="cls-2" d="M202.36,342.76c-.7-1.08-1.93-1.48-2.8-.73s-1.39,1.62-.53,2.73a1.85,1.85,0,0,0,2.81.74A1.78,1.78,0,0,0,202.36,342.76Z"/><path class="cls-2" d="M233,344.87a1.84,1.84,0,0,0-2.76-.83,1.78,1.78,0,0,0-.7,2.66,1.93,1.93,0,0,0,2.79.91A1.87,1.87,0,0,0,233,344.87Z"/><path class="cls-2" d="M172,341a1.82,1.82,0,0,0-2.77-.75,1.76,1.76,0,0,0-.62,2.68,1.9,1.9,0,0,0,2.81.82A1.86,1.86,0,0,0,172,341Z"/><path class="cls-2" d="M64.1,297.68a2,2,0,0,0-3.34,2.1c.66,1.1,1.64,1.24,2.85.64A1.92,1.92,0,0,0,64.1,297.68Z"/><path class="cls-2" d="M105.42,324.65a1.88,1.88,0,0,0-3.15,2.07,1.87,1.87,0,0,0,2.65.61A1.89,1.89,0,0,0,105.42,324.65Z"/><path class="cls-2" d="M123.27,331.94a1.72,1.72,0,0,0-2.52-.59,1.66,1.66,0,0,0-.71,2.54,1.8,1.8,0,0,0,2.63.67A1.86,1.86,0,0,0,123.27,331.94Z"/><path class="cls-2" d="M189.66,348.22a1.69,1.69,0,0,0-2.63-.33,1.75,1.75,0,0,0-.4,2.6,1.88,1.88,0,0,0,2.63.42A1.81,1.81,0,0,0,189.66,348.22Z"/><path class="cls-2" d="M141.06,339.16a1.75,1.75,0,0,0-2.68-.42,1.63,1.63,0,0,0-.49,2.47,1.81,1.81,0,0,0,2.66.59A1.89,1.89,0,0,0,141.06,339.16Z"/><path class="cls-2" d="M46.19,290.4A1.76,1.76,0,0,0,43.5,290a1.64,1.64,0,0,0-.49,2.48,1.8,1.8,0,0,0,2.66.58A1.87,1.87,0,0,0,46.19,290.4Z"/><path class="cls-2" d="M220.13,350.08a1.64,1.64,0,0,0-2.46-.57,1.75,1.75,0,0,0-.71,2.62,1.87,1.87,0,0,0,2.62.61A1.8,1.8,0,0,0,220.13,350.08Z"/><path class="cls-2" d="M87.24,317.45a1.67,1.67,0,0,0-2.62-.32,1.72,1.72,0,0,0-.44,2.54,1.88,1.88,0,0,0,2.66.48A1.82,1.82,0,0,0,87.24,317.45Z"/><path class="cls-2" d="M22.83,270.49a1.75,1.75,0,0,0-2.68-.35,1.63,1.63,0,0,0-.44,2.48,1.8,1.8,0,0,0,2.67.53A1.87,1.87,0,0,0,22.83,270.49Z"/><path class="cls-2" d="M69.2,310a1.5,1.5,0,0,0-2.41-.48,1.44,1.44,0,0,0-.81,2.14,1.9,1.9,0,0,0,2.68,1A1.76,1.76,0,0,0,69.2,310Z"/><path class="cls-2" d="M159,346.47c-.62-1.08-1.49-1.34-2.43-.7-.74.5-1.24,1.31-.48,2.2.58,1,1.28,1.45,2.36.77A1.46,1.46,0,0,0,159,346.47Z"/><path class="cls-2" d="M250.4,352.1c-.51-1.07-1.47-1-2.29-.46a1.51,1.51,0,0,0-.33,2.4c.66.88,1.31,1.15,2.27.54S251.14,353.11,250.4,352.1Z"/><path class="cls-2" d="M207.11,355.35c-.38-.72-1.34-.78-2.18-.25a1.54,1.54,0,0,0-.37,2.32,1.51,1.51,0,0,0,2.31.61C207.83,357.42,207.9,356.61,207.11,355.35Z"/><path class="cls-2" d="M27.67,283.14a1.64,1.64,0,1,0-2.74,1.77,1.49,1.49,0,0,0,2.3.58A1.52,1.52,0,0,0,27.67,283.14Z"/><path class="cls-2" d="M51,303a1.53,1.53,0,0,0-2.27-.59,1.59,1.59,0,0,0-.42,2.43,1.56,1.56,0,0,0,2.36.52A1.54,1.54,0,0,0,51,303Z"/><path class="cls-2" d="M176.78,353.77a1.48,1.48,0,0,0-2.21-.51,1.6,1.6,0,1,0,1.7,2.72A1.48,1.48,0,0,0,176.78,353.77Z"/><path class="cls-2" d="M238,357.34c-.53-.95-1.3-.9-2.12-.5-.77.56-1.25,1.19-.65,2.12a1.58,1.58,0,0,0,2.32.61A1.55,1.55,0,0,0,238,357.34Z"/><path class="cls-2" d="M110.28,337.39a1.36,1.36,0,0,0-2.06-.25c-.83.53-1.07,1.22-.44,2.3a1.59,1.59,0,0,0,2.23.33A1.58,1.58,0,0,0,110.28,337.39Z"/><path class="cls-2" d="M92.28,329.86a1.35,1.35,0,0,0-2-.27,1.44,1.44,0,0,0-.51,2.21,1.61,1.61,0,1,0,2.56-1.94Z"/><path class="cls-2" d="M74.17,322.84c-.57-.84-1.29-.77-2.17-.17a1.22,1.22,0,0,0-.34,1.93,1.49,1.49,0,0,0,2.21.49A1.51,1.51,0,0,0,74.17,322.84Z"/><path class="cls-2" d="M146.17,351.83c-.58-.85-1.3-.75-2.2-.14a1.21,1.21,0,0,0-.31,1.91,1.5,1.5,0,0,0,2.22.49A1.52,1.52,0,0,0,146.17,351.83Z"/><path class="cls-2" d="M128.46,344.7a1.55,1.55,0,1,0-2.51,1.82,1.55,1.55,0,1,0,2.51-1.82Z"/><path class="cls-2" d="M33.12,296a1.36,1.36,0,0,0-1.94-.55,1.43,1.43,0,0,0-.58,2.07,1.42,1.42,0,0,0,1.94.52A1.38,1.38,0,0,0,33.12,296Z"/><path class="cls-2" d="M194.55,361a1.19,1.19,0,0,0-1.89-.59c-.83.51-.82,1.2-.3,2s1,1,1.85.47S195.18,361.74,194.55,361Z"/><path class="cls-2" d="M225.13,362.92c-.54-.83-1.18-1-2-.47s-.65,1.27-.15,2,1.12.9,1.84.33C225.78,364.28,225.6,363.66,225.13,362.92Z"/><path class="cls-2" d="M163.8,359.24a1.3,1.3,0,1,0-2.18,1.41,1.31,1.31,0,1,0,2.18-1.41Z"/><path class="cls-2" d="M56.27,315.9a1.31,1.31,0,0,0-1.84-.73,1.23,1.23,0,0,0-.56,1.78c.52.87,1.16,1.18,2,.74A1.2,1.2,0,0,0,56.27,315.9Z"/><path class="cls-2" d="M115.37,349.92c-.48-.78-1-.55-1.63-.2s-1.07.88-.47,1.68a1.26,1.26,0,0,0,1.8.48C115.82,351.4,115.84,350.69,115.37,349.92Z"/><path class="cls-2" d="M38.31,308.42c-.49-.78-1-.54-1.63-.19s-1.06.89-.46,1.68a1.25,1.25,0,0,0,1.8.47C38.76,309.9,38.78,309.19,38.31,308.42Z"/><path class="cls-2" d="M181.74,366.11c-.33-.67-1-.32-1.58.07s-.94.86-.42,1.58,1.2,1,1.92.46S182.34,367.06,181.74,366.11Z"/><path class="cls-2" d="M97.34,342.93c-.46-.86-1.06-.71-2-.07-.37.21-.67.72-.09,1.48a1.28,1.28,0,1,0,2.14-1.41Z"/><path class="cls-2" d="M79.55,335.92a1.15,1.15,0,0,0-1.63-.51,1,1,0,0,0-.46,1.59,1.3,1.3,0,0,0,1.76.41A1.18,1.18,0,0,0,79.55,335.92Z"/><path class="cls-2" d="M133.29,357.56a1.14,1.14,0,0,0-1.62-.52,1,1,0,0,0-.48,1.59A1.31,1.31,0,0,0,133,359,1.18,1.18,0,0,0,133.29,357.56Z"/><path class="cls-2" d="M151.21,364.73c-.4-.59-.83-.78-1.46-.35s-.47.95-.13,1.5.84.77,1.62.24C151.72,365.78,151.58,365.29,151.21,364.73Z"/><path class="cls-2" d="M169.08,372.12a.77.77,0,0,0-1.2-.26c-.51.31-.81.69-.4,1.3a1,1,0,1,0,1.6-1Z"/><path class="cls-2" d="M102.57,355.71c-.38-.59-.85-.5-1.35-.16a.79.79,0,0,0-.24,1.22,1,1,0,1,0,1.59-1.06Z"/><path class="cls-2" d="M43.34,321.48c-.39-.59-.85-.49-1.35-.15a.78.78,0,0,0-.25,1.21,1,1,0,1,0,1.6-1.06Z"/><path class="cls-2" d="M61.56,328.58a1,1,0,0,0-1.38-.35,1,1,0,0,0-.42,1.48,1.06,1.06,0,1,0,1.8-1.13Z"/><path class="cls-2" d="M120.16,362.7c-.19-.35-.59-.06-.93.15s-.83.46-.49,1,.83.8,1.37.43S120.49,363.4,120.16,362.7Z"/><path class="cls-2" d="M84.57,348.29c-.34-.49-.76-.15-1.09.09s-.76.49-.32,1,.82.66,1.28.35A1,1,0,0,0,84.57,348.29Z"/><path class="cls-2" d="M66.57,341.36c-.25-.68-.68-.36-1-.17s-1,.44-.48,1.06a1,1,0,0,0,1.28.4A1.06,1.06,0,0,0,66.57,341.36Z"/><path class="cls-2" d="M138.38,370.07c-.26-.65-.69-.34-1-.15s-1,.46-.45,1.07a1,1,0,0,0,1.28.38A1.06,1.06,0,0,0,138.38,370.07Z"/><path class="cls-2" d="M224.92,33.33A142.85,142.85,0,0,1,143,52.67c-74.82-4.81-121.5,47.6-129.8,73.8-9.62,30.43-3.55,64.46,12,92.35S65,268.94,91.66,286.49c20.85,13.7,44,25,68.76,27.68,24.23,2.6,48.51-3.14,72.09-9.32,30.32-7.94,60.94-16.87,87.37-33.74,21.56-13.75,41.3-37,36.85-62.13-3.8-21.46-24.1-37.26-27.53-58.78-4.8-30.14,24.65-55.31,28.59-85.58,4.6-35.3-20.74-64.41-45-64.62C287.61-.21,252.28,17.15,224.92,33.33Z"/><path class="cls-3" d="M141.55,283.57c40-10,96.14,17.47,125.84,18.71,27.19,1.13,62.5-15.4,83.24-33.72s25.23-47.77,4.76-64.72c-8.92-7.38-21.38-11.85-30.45-19.11-29-23.27-12.66-63-25.55-93.81-14.84-35.54-66.72-53.75-116.07-57.34-31.39-2.29-65.13.17-92.32,13.58S45.69,87.08,55.32,109.63C64,130,92.94,148,81.33,168.2,73.23,182.35,50,186.88,34.1,196.67,9.21,212,4.75,241.37,19.64,261.7s33.43,34.92,64.73,33.18C99,294.06,127.49,287.1,141.55,283.57Z"/><path class="cls-2" d="M143,52.67c-74.82-4.81-121.5,47.6-129.8,73.8-9.62,30.43-3.55,64.46,12,92.35S65,268.94,91.66,286.49"/></g></g></svg>